<?xml version="1.0" encoding="utf-8"?>
<?xml-stylesheet type="text/css" href="../../index.css"?>
<!-- Generator: Adobe Illustrator 21.1.0, SVG Export Plug-In . SVG Version: 6.00 Build 0)  -->
<svg class="" version="1.1" id="Layer_1" xmlns="http://www.w3.org/2000/svg" x="0px" y="0px"
	 viewBox="0 0 630 333" style="enable-background:new 0 0 630 333;">

<g id="Layer_2">
	<g className="colorr animetext">
		<path  d="M12.9,282c-1,0-1.8-0.4-2.5-1.1c-0.7-0.7-1.1-1.5-1.1-2.5v-77c0-1,0.4-1.8,1.1-2.5c0.7-0.7,1.5-1.1,2.5-1.1
			l46.5,0.2c1,0,1.8,0.4,2.5,1.1c0.7,0.7,1.1,1.5,1.1,2.5s-0.4,1.8-1.1,2.5c-0.7,0.7-1.5,1-2.5,1l-43-0.1v31.5h32.2
			c1,0,1.8,0.4,2.5,1.1c0.7,0.7,1.1,1.5,1.1,2.5s-0.4,1.8-1.1,2.5c-0.7,0.7-1.5,1.1-2.5,1.1H16.4V275h43c1,0,1.8,0.4,2.5,1.1
			c0.7,0.7,1.1,1.5,1.1,2.5s-0.4,1.8-1.1,2.5c-0.7,0.7-1.5,1.1-2.5,1.1H12.9V282z"/>
		<path  d="M104.1,243.5c-9.4-0.1-16.4-2.7-21.2-7.8c-3.8-4.1-5.6-8.8-5.4-14.1c0.3-6.6,3-12.2,8-16.8
			c5-4.6,11-6.9,18-6.9c6.2,0,11.7,1.3,16.5,3.9c5.8,3,9.5,7.5,11,13.3c0.2,0.9,0.1,1.8-0.4,2.6s-1.2,1.3-2.2,1.6
			c-0.9,0.3-1.8,0.2-2.6-0.4c-0.8-0.5-1.3-1.2-1.6-2.1c-1.1-4.1-3.8-7.1-8.2-9.3c-3.7-1.8-7.9-2.7-12.6-2.7c-5.1,0-9.5,1.6-13.2,4.9
			s-5.6,7.3-5.9,12.1c-0.2,3.4,1,6.3,3.5,9c3.4,3.6,8.8,5.5,16.2,5.6c1,0,1.8,0.4,2.5,1.1c0.7,0.7,1,1.5,1,2.5
			c0,0.9-0.4,1.7-1.1,2.4C105.9,243.1,105.1,243.5,104.1,243.5L104.1,243.5z M88.6,278.2c-5.8-3.1-9.5-7.5-11-13.4
			c-0.2-0.9-0.1-1.8,0.4-2.6c0.5-0.8,1.2-1.3,2.2-1.6c0.9-0.2,1.8-0.1,2.6,0.4c0.8,0.5,1.3,1.2,1.6,2.1c1.1,4.1,3.8,7.2,8.2,9.3
			c3.7,1.8,7.9,2.6,12.6,2.6c5.1,0,9.5-1.6,13.2-4.9c3.7-3.3,5.6-7.3,5.9-12c0.2-3.4-1-6.4-3.5-9c-3.4-3.6-8.8-5.5-16.2-5.6
			c-1,0-1.8-0.4-2.5-1.1c-0.7-0.7-1-1.5-1-2.5s0.4-1.8,1.1-2.5c0.7-0.7,1.5-1,2.5-1c9.4,0.2,16.4,2.8,21.2,7.9
			c3.8,4,5.6,8.7,5.3,14.1c-0.3,6.6-2.9,12.2-8,16.8c-5,4.6-11,6.9-18,6.9C99,282,93.5,280.7,88.6,278.2z"/>
		<path  d="M175,243.5c-9.4-0.1-16.4-2.7-21.2-7.8c-3.8-4.1-5.6-8.8-5.4-14.1c0.3-6.6,3-12.2,8-16.8c5-4.6,11-6.9,18-6.9
			c6.2,0,11.7,1.3,16.5,3.9c5.8,3,9.5,7.5,11,13.3c0.2,0.9,0.1,1.8-0.4,2.6s-1.2,1.3-2.2,1.6c-0.9,0.3-1.8,0.2-2.6-0.4
			c-0.8-0.5-1.3-1.2-1.6-2.1c-1.1-4.1-3.8-7.1-8.2-9.3c-3.7-1.8-7.9-2.7-12.6-2.7c-5.1,0-9.5,1.6-13.2,4.9s-5.6,7.3-5.9,12.1
			c-0.2,3.4,1,6.3,3.5,9c3.4,3.6,8.8,5.5,16.2,5.6c1,0,1.8,0.4,2.5,1.1c0.7,0.7,1,1.5,1,2.5c0,0.9-0.4,1.7-1.1,2.4
			C176.9,243.1,176,243.5,175,243.5L175,243.5z M159.6,278.2c-5.8-3.1-9.5-7.5-11-13.4c-0.2-0.9-0.1-1.8,0.4-2.6
			c0.5-0.8,1.2-1.3,2.2-1.6c0.9-0.2,1.8-0.1,2.6,0.4s1.3,1.2,1.6,2.1c1.1,4.1,3.8,7.2,8.2,9.3c3.7,1.8,7.9,2.6,12.6,2.6
			c5.1,0,9.5-1.6,13.2-4.9c3.7-3.3,5.6-7.3,5.9-12c0.2-3.4-1-6.4-3.5-9c-3.4-3.6-8.8-5.5-16.2-5.6c-1,0-1.8-0.4-2.5-1.1
			c-0.7-0.7-1-1.5-1-2.5s0.4-1.8,1.1-2.5c0.7-0.7,1.5-1,2.5-1c9.4,0.2,16.4,2.8,21.2,7.9c3.8,4,5.6,8.7,5.3,14.1
			c-0.3,6.6-2.9,12.2-8,16.8c-5,4.6-11,6.9-18,6.9C169.9,282,164.4,280.7,159.6,278.2z"/>
		<path  d="M225.6,282c-1,0-1.8-0.4-2.5-1.1c-0.7-0.7-1.1-1.5-1.1-2.5v-77c0-1,0.4-1.8,1.1-2.5c0.7-0.7,1.5-1.1,2.5-1.1
			l46.5,0.1c1,0,1.8,0.4,2.5,1.1s1.1,1.5,1.1,2.5s-0.4,1.8-1.1,2.5s-1.5,1-2.5,1l-43-0.1v31.5h32.2c1,0,1.8,0.4,2.5,1.1
			s1.1,1.5,1.1,2.5s-0.4,1.8-1.1,2.5s-1.5,1.1-2.5,1.1h-32.2V275h43c1,0,1.8,0.4,2.5,1.1c0.7,0.7,1.1,1.5,1.1,2.5s-0.4,1.8-1.1,2.5
			c-0.7,0.7-1.5,1.1-2.5,1.1h-46.5V282z"/>
		<path d="M353.8,280.8L353.8,280.8l-0.1-0.1L300,211.6v66.9c0,1-0.4,1.8-1.1,2.5s-1.5,1.1-2.5,1.1s-1.8-0.4-2.5-1.1
			s-1.1-1.5-1.1-2.5v-77.2c0-1.7,0.8-2.8,2.3-3.3c1.6-0.5,2.9-0.2,3.9,1.2l53.7,69.1v-67c0-1,0.3-1.8,1-2.5s1.5-1.1,2.5-1.1
			s1.8,0.4,2.5,1.1s1,1.5,1,2.5v77.2c0-0.1,0,0,0,0.2c0,0.1,0,0.2-0.1,0.4c0,0.1,0,0.2-0.1,0.3c0,0.2-0.1,0.3-0.1,0.4
			c0,0.1-0.1,0.2-0.1,0.3s-0.1,0.2-0.2,0.3c0,0.1-0.1,0.2-0.2,0.3s-0.2,0.2-0.2,0.3c0,0-0.1,0.1-0.2,0.2c-0.2,0.2-0.3,0.2-0.2,0.1
			c0.1,0,0,0-0.1,0.1c0,0-0.1,0.1-0.2,0.1c-0.1,0.1-0.2,0.1-0.4,0.2c-0.1,0-0.2,0.1-0.2,0.1c-0.1,0-0.3,0.1-0.4,0.1
			s-0.2,0.1-0.2,0.1c-0.2,0-0.4,0.1-0.6,0.1s-0.5,0-0.7-0.1l-0.2-0.1c-0.2-0.1-0.4-0.1-0.5-0.2c0,0-0.1-0.1-0.2-0.2
			c-0.2-0.1-0.3-0.2-0.4-0.2c0,0-0.1-0.1-0.2-0.2s-0.2-0.2-0.2-0.2S353.9,280.9,353.8,280.8z"/>
		<path  d="M419.4,282c-11.6,0-21.5-4.1-29.7-12.4c-8.2-8.2-12.4-18.1-12.4-29.7s4.1-21.6,12.4-29.8
			c8.2-8.2,18.1-12.4,29.7-12.4c9.6,0,18.1,2.9,25.7,8.7c0.8,0.6,1.2,1.4,1.3,2.3c0.1,1-0.1,1.8-0.7,2.6s-1.4,1.2-2.3,1.3
			c-1,0.2-1.8-0.1-2.6-0.7c-6.3-4.8-13.4-7.2-21.4-7.2c-9.6,0-17.9,3.4-24.7,10.3c-6.8,6.8-10.3,15.1-10.3,24.8
			c0,9.6,3.4,17.9,10.3,24.7c6.8,6.8,15.1,10.3,24.7,10.3c9.1,0,16.9-3,23.6-9.1c0.7-0.7,1.5-1,2.5-0.9c1,0,1.8,0.4,2.5,1.2
			c0.7,0.7,1,1.5,0.9,2.5c0,1-0.4,1.8-1.2,2.5C439.7,278.4,430.3,282,419.4,282z"/>
		<path  d="M473.6,278.5c0,1-0.4,1.8-1.1,2.5s-1.5,1.1-2.5,1.1s-1.8-0.4-2.5-1.1s-1.1-1.5-1.1-2.5v-76.8
			c0-1,0.4-1.8,1.1-2.5s1.5-1.1,2.5-1.1s1.8,0.4,2.5,1.1s1.1,1.5,1.1,2.5V278.5z"/>
		<path d="M494.3,281.7c-0.9-0.4-1.5-1-1.9-1.9c-0.4-0.9-0.4-1.8,0-2.7l8.1-19.6v-0.1l23.7-57.2
			c0.1-0.2,0.2-0.4,0.3-0.6l0.2-0.2c0.1-0.2,0.2-0.3,0.2-0.3s0.1-0.1,0.3-0.2c0.2-0.2,0.3-0.2,0.2-0.2c0.4-0.3,0.8-0.4,1.2-0.5h0.3
			c0.2,0,0.4-0.1,0.4-0.1s0.2,0,0.4,0.1c0.2,0,0.3,0,0.3,0c0.5,0.1,0.9,0.3,1.3,0.5l0.2,0.2c0.4,0.1,0.5,0.1,0.5,0.1
			s0.1,0.1,0.2,0.3c0.2,0.2,0.2,0.3,0.2,0.2c0.1,0.2,0.2,0.4,0.3,0.6l23.7,57.2v0.1l8.1,19.6c0.4,0.9,0.4,1.8,0,2.7
			c-0.4,0.9-1,1.5-1.9,1.9c-0.4,0.2-0.9,0.3-1.3,0.3c-1.6,0-2.6-0.7-3.2-2.2l-7.3-17.5H506l-7.3,17.5c-0.6,1.4-1.7,2.2-3.2,2.2
			c-0.5,0-0.7,0-0.7,0S494.8,281.9,494.3,281.7z M546.1,255.4l-18.5-44.6L509,255.4H546.1z"/>
		<path class="colorr animetext" d="M581.6,198.2c0.9,0,1.8,0.4,2.5,1.1s1,1.5,1,2.5V275h38c1,0,1.8,0.3,2.5,1s1.1,1.5,1.1,2.5s-0.4,1.8-1.1,2.5
			c-0.7,0.7-1.5,1-2.5,1h-41.5c-1,0-1.8-0.3-2.5-1s-1-1.5-1-2.5v-76.8c0-1,0.3-1.8,1-2.5S580.7,198.2,581.6,198.2z"/>
	</g>
	<g className="colorr animetext2">
		<path  d="M383.5,296.4c0,0.5-0.1,0.8-0.3,1c-0.2,0.2-0.5,0.3-0.9,0.3s-0.8-0.1-0.9-0.3c-0.2-0.2-0.3-0.5-0.3-1
			s0.1-0.8,0.3-1c0.2-0.2,0.5-0.3,0.9-0.3s0.8,0.1,0.9,0.2C383.5,295.6,383.5,295.9,383.5,296.4z M383.3,314.7c0,0.1,0,0.1,0,0.2
			s-0.1,0.1-0.1,0.1s-0.2,0.1-0.3,0.1c-0.1,0-0.3,0-0.4,0c-0.2,0-0.3,0-0.4,0s-0.2,0-0.3-0.1c-0.1,0-0.1-0.1-0.1-0.1
			c0-0.1,0-0.1,0-0.2V301c0-0.1,0-0.1,0-0.2c0-0.1,0.1-0.1,0.1-0.1c0.1,0,0.2-0.1,0.3-0.1c0.1,0,0.3,0,0.4,0c0.2,0,0.3,0,0.4,0
			s0.2,0,0.3,0.1c0.1,0,0.1,0.1,0.1,0.1c0,0.1,0,0.1,0,0.2V314.7z"/>
		<path  d="M399.4,314.7c0,0.1,0,0.1,0,0.2s-0.1,0.1-0.1,0.1c-0.1,0-0.2,0.1-0.3,0.1c-0.1,0-0.3,0-0.4,0
			c-0.2,0-0.3,0-0.4,0s-0.2,0-0.3-0.1c-0.1,0-0.1-0.1-0.1-0.1c0-0.1,0-0.1,0-0.2v-8.1c0-0.8-0.1-1.5-0.2-2.1c-0.1-0.5-0.3-1-0.6-1.4
			c-0.3-0.4-0.6-0.7-1-0.9c-0.4-0.2-0.9-0.3-1.4-0.3c-0.7,0-1.4,0.2-2.1,0.7s-1.4,1.2-2.2,2.2v9.8c0,0.1,0,0.1,0,0.2
			c0,0.1-0.1,0.1-0.1,0.1s-0.2,0.1-0.3,0.1c-0.1,0-0.3,0-0.4,0c-0.2,0-0.3,0-0.4,0s-0.2,0-0.3-0.1c-0.1,0-0.1-0.1-0.1-0.1
			c0-0.1,0-0.1,0-0.2V301c0-0.1,0-0.1,0-0.2c0-0.1,0.1-0.1,0.1-0.1c0.1,0,0.2-0.1,0.3-0.1c0.1,0,0.2,0,0.4,0s0.3,0,0.4,0
			s0.2,0,0.3,0.1c0.1,0,0.1,0.1,0.1,0.1c0,0.1,0,0.1,0,0.2v1.9c0.8-0.9,1.6-1.5,2.3-1.9c0.8-0.4,1.5-0.6,2.3-0.6
			c0.9,0,1.7,0.2,2.3,0.5c0.6,0.3,1.1,0.7,1.5,1.2s0.7,1.1,0.8,1.8c0.2,0.7,0.3,1.5,0.3,2.5v8.3H399.4z"/>
		<path  d="M416.5,307.7c0,1.1-0.1,2.1-0.4,3c-0.3,0.9-0.7,1.7-1.3,2.4c-0.6,0.7-1.3,1.2-2.1,1.6
			c-0.8,0.4-1.8,0.6-2.9,0.6s-2-0.2-2.8-0.5c-0.8-0.3-1.5-0.8-2-1.5c-0.5-0.6-0.9-1.4-1.2-2.3c-0.3-0.9-0.4-1.9-0.4-3s0.1-2.1,0.4-3
			s0.7-1.7,1.3-2.4c0.6-0.7,1.3-1.2,2.1-1.6c0.8-0.4,1.8-0.6,2.9-0.6s2,0.2,2.8,0.5c0.8,0.3,1.5,0.8,2,1.4c0.5,0.6,0.9,1.4,1.2,2.3
			C416.4,305.6,416.5,306.6,416.5,307.7z M414.6,307.9c0-0.8-0.1-1.5-0.2-2.2c-0.2-0.7-0.4-1.3-0.8-1.9c-0.4-0.5-0.8-1-1.4-1.3
			s-1.3-0.5-2.2-0.5c-0.8,0-1.5,0.1-2.1,0.4c-0.6,0.3-1.1,0.7-1.5,1.2s-0.7,1.1-0.8,1.8c-0.2,0.7-0.3,1.5-0.3,2.3
			c0,0.8,0.1,1.5,0.2,2.2c0.2,0.7,0.4,1.3,0.8,1.9c0.4,0.5,0.8,1,1.4,1.3s1.3,0.5,2.2,0.5c0.8,0,1.5-0.1,2.1-0.4s1.1-0.7,1.5-1.2
			s0.7-1.1,0.8-1.8C414.5,309.5,414.6,308.7,414.6,307.9z"/>
		<path  d="M430.9,301L430.9,301c0,0.1,0,0.2,0,0.2v0.1v0.1l-5,13.3c0,0.1-0.1,0.1-0.1,0.2c-0.1,0.1-0.1,0.1-0.2,0.1
			s-0.2,0.1-0.3,0.1c-0.1,0-0.3,0-0.4,0s-0.3,0-0.5,0c-0.1,0-0.2,0-0.3-0.1s-0.2-0.1-0.2-0.1c-0.1-0.1-0.1-0.1-0.1-0.2l-5-13.3
			c0-0.1-0.1-0.1-0.1-0.2c0-0.1,0-0.1,0-0.1V301c0-0.1,0-0.1,0-0.2c0-0.1,0.1-0.1,0.1-0.1c0.1,0,0.2,0,0.3-0.1c0.1,0,0.2,0,0.4,0
			c0.2,0,0.4,0,0.5,0s0.2,0,0.3,0.1c0.1,0,0.1,0.1,0.2,0.1c0,0.1,0.1,0.1,0.1,0.2l4.3,12v0.1V313l4.2-12c0-0.1,0.1-0.1,0.1-0.2
			c0-0.1,0.1-0.1,0.2-0.1s0.2-0.1,0.3-0.1c0.1,0,0.3,0,0.5,0s0.3,0,0.4,0s0.2,0,0.3,0.1c0.1,0.1,0.1,0.1,0.1,0.1
			C430.9,300.8,430.9,300.9,430.9,301z"/>
		<path  d="M443.2,314.7c0,0.1,0,0.2-0.1,0.2c-0.1,0.1-0.2,0.1-0.3,0.1c-0.1,0-0.2,0-0.4,0c-0.2,0-0.3,0-0.4,0
			s-0.2-0.1-0.3-0.1c-0.1-0.1-0.1-0.1-0.1-0.2v-1.5c-0.6,0.7-1.3,1.2-2,1.5c-0.7,0.4-1.5,0.5-2.3,0.5c-0.7,0-1.4-0.1-1.9-0.3
			c-0.6-0.2-1.1-0.5-1.4-0.8c-0.4-0.3-0.7-0.8-0.9-1.3c-0.2-0.5-0.3-1-0.3-1.7c0-0.8,0.2-1.4,0.5-2c0.3-0.6,0.8-1,1.3-1.4
			c0.6-0.4,1.3-0.7,2.1-0.8c0.8-0.2,1.7-0.3,2.7-0.3h2.2v-1.2c0-0.6-0.1-1.1-0.2-1.6c-0.1-0.4-0.3-0.8-0.6-1.1
			c-0.3-0.3-0.6-0.5-1.1-0.7c-0.4-0.2-1-0.2-1.6-0.2s-1.2,0.1-1.6,0.2c-0.5,0.1-0.9,0.3-1.3,0.5c-0.4,0.2-0.7,0.3-0.9,0.5
			c-0.2,0.1-0.4,0.2-0.5,0.2s-0.1,0-0.2,0s-0.1-0.1-0.1-0.1c0-0.1-0.1-0.1-0.1-0.2s0-0.2,0-0.3c0-0.2,0-0.4,0-0.5
			c0-0.1,0.1-0.3,0.2-0.4s0.4-0.3,0.7-0.4c0.3-0.2,0.7-0.3,1.1-0.5c0.4-0.1,0.9-0.3,1.4-0.4s1-0.1,1.5-0.1c0.9,0,1.7,0.1,2.4,0.3
			c0.6,0.2,1.2,0.6,1.6,1c0.4,0.4,0.7,0.9,0.9,1.6c0.2,0.6,0.3,1.3,0.3,2.1v9.4H443.2z M441.4,308.2h-2.5c-0.7,0-1.4,0.1-1.9,0.2
			s-1,0.3-1.4,0.6s-0.6,0.6-0.8,0.9c-0.2,0.4-0.3,0.8-0.3,1.2c0,0.8,0.3,1.4,0.7,1.9c0.5,0.5,1.2,0.7,2.1,0.7c0.7,0,1.4-0.2,2-0.6
			c0.6-0.4,1.3-0.9,2-1.7L441.4,308.2L441.4,308.2z"/>
		<path  d="M457.8,312.7c0,0.1,0,0.2,0,0.3s0,0.2,0,0.3c0,0.1,0,0.1-0.1,0.2c0,0.1-0.1,0.1-0.2,0.3
			c-0.1,0.1-0.4,0.3-0.7,0.5c-0.3,0.2-0.7,0.4-1.2,0.6c-0.5,0.2-1.1,0.3-1.7,0.4l0.4,1c0.2,0.5,0.4,0.9,0.5,1.2s0.2,0.6,0.2,0.8
			c0,0.3-0.1,0.7-0.2,0.9c-0.1,0.3-0.3,0.5-0.6,0.7c-0.2,0.2-0.5,0.4-0.9,0.5c-0.3,0.1-0.7,0.2-1.2,0.2c-0.3,0-0.6,0-0.9-0.1
			c-0.3,0-0.5-0.1-0.8-0.1c-0.2,0-0.4-0.1-0.4-0.1c-0.1,0-0.1-0.1-0.2-0.1c0-0.1-0.1-0.1-0.1-0.2s0-0.2,0-0.3c0-0.3,0-0.4,0.1-0.5
			c0.1-0.1,0.2-0.1,0.3-0.1h1.9c0.4,0,0.6-0.1,0.8-0.2c0.2-0.1,0.3-0.4,0.3-0.7c0-0.1,0-0.3-0.1-0.5c-0.1-0.2-0.2-0.5-0.3-0.7
			l-0.8-1.7c-1-0.2-1.9-0.5-2.6-1.2c-0.7-0.6-1.2-1.4-1.6-2.4s-0.5-2.2-0.5-3.6c0-1.3,0.2-2.5,0.5-3.4s0.8-1.7,1.3-2.3
			s1.2-1.1,1.9-1.3c0.7-0.3,1.5-0.4,2.4-0.4c0.5,0,0.9,0,1.3,0.1s0.8,0.2,1.1,0.3c0.3,0.1,0.7,0.3,0.9,0.5c0.3,0.2,0.5,0.3,0.6,0.5
			c0.1,0.1,0.2,0.2,0.3,0.3c0,0.1,0.1,0.1,0.1,0.2c0,0.1,0,0.2,0.1,0.3c0,0.1,0,0.2,0,0.3c0,0.3,0,0.5-0.1,0.6
			c-0.1,0.1-0.2,0.2-0.3,0.2c-0.1,0-0.3-0.1-0.5-0.3c-0.2-0.2-0.5-0.4-0.8-0.6c-0.3-0.2-0.7-0.4-1.2-0.6s-1-0.3-1.6-0.3
			c-1.3,0-2.3,0.5-3,1.5s-1.1,2.5-1.1,4.4c0,1,0.1,1.8,0.3,2.5c0.2,0.7,0.5,1.3,0.8,1.8c0.4,0.5,0.8,0.8,1.3,1.1
			c0.5,0.2,1.1,0.4,1.7,0.4s1.1-0.1,1.6-0.3c0.5-0.2,0.9-0.4,1.2-0.6c0.3-0.2,0.6-0.4,0.9-0.6c0.2-0.2,0.4-0.3,0.5-0.3
			s0.1,0,0.2,0.1c0,0,0.1,0.1,0.1,0.2C457.7,312.5,457.8,312.6,457.8,312.7C457.8,312.4,457.8,312.5,457.8,312.7z"/>
		<path  d="M473.2,307.7c0,1.1-0.1,2.1-0.4,3c-0.3,0.9-0.7,1.7-1.3,2.4c-0.6,0.7-1.3,1.2-2.1,1.6
			c-0.8,0.4-1.8,0.6-2.9,0.6s-2-0.2-2.8-0.5c-0.8-0.3-1.5-0.8-2-1.5c-0.5-0.6-0.9-1.4-1.2-2.3c-0.3-0.9-0.4-1.9-0.4-3s0.1-2.1,0.4-3
			s0.7-1.7,1.3-2.4c0.6-0.7,1.3-1.2,2.1-1.6c0.8-0.4,1.8-0.6,2.9-0.6s2,0.2,2.8,0.5c0.8,0.3,1.5,0.8,2,1.4c0.5,0.6,0.9,1.4,1.2,2.3
			C473.1,305.6,473.2,306.6,473.2,307.7z M471.5,295.3c0,1-0.2,1.7-0.7,2.3c-0.5,0.5-1.2,0.8-2,0.8c-0.4,0-0.7-0.1-1-0.2
			s-0.6-0.2-0.8-0.4c-0.2-0.2-0.5-0.3-0.7-0.5c-0.2-0.2-0.4-0.4-0.6-0.5c-0.2-0.2-0.4-0.3-0.6-0.4c-0.2-0.1-0.4-0.2-0.7-0.2
			c-0.4,0-0.8,0.2-0.9,0.5c-0.2,0.3-0.3,0.8-0.3,1.3c0,0.1,0,0.1,0,0.2s-0.1,0.1-0.1,0.1s-0.1,0.1-0.2,0.1s-0.2,0-0.4,0
			c-0.1,0-0.2,0-0.3,0c-0.1,0-0.2-0.1-0.2-0.1c-0.1,0-0.1-0.1-0.1-0.2s0-0.2,0-0.3c0-0.9,0.2-1.6,0.7-2.2s1.1-0.8,2-0.8
			c0.5,0,1,0.1,1.4,0.3c0.4,0.2,0.7,0.5,1.1,0.7c0.3,0.3,0.6,0.5,0.9,0.7c0.3,0.2,0.6,0.3,1,0.3s0.7-0.1,0.9-0.4
			c0.2-0.3,0.3-0.7,0.3-1.3c0-0.1,0-0.2,0.1-0.3c0.1-0.1,0.3-0.1,0.6-0.1c0.3,0,0.5,0,0.6,0.1C471.5,294.9,471.5,295,471.5,295.3z
			 M471.3,307.9c0-0.8-0.1-1.5-0.2-2.2c-0.2-0.7-0.4-1.3-0.8-1.9c-0.4-0.5-0.8-1-1.4-1.3s-1.3-0.5-2.2-0.5c-0.8,0-1.5,0.1-2.1,0.4
			c-0.6,0.3-1.1,0.7-1.5,1.2s-0.7,1.1-0.8,1.8c-0.2,0.7-0.3,1.5-0.3,2.3c0,0.8,0.1,1.5,0.2,2.2c0.2,0.7,0.4,1.3,0.8,1.9
			c0.4,0.5,0.8,1,1.4,1.3s1.3,0.5,2.2,0.5c0.8,0,1.5-0.1,2.1-0.4s1.1-0.7,1.5-1.2s0.7-1.1,0.8-1.8
			C471.2,309.5,471.3,308.7,471.3,307.9z"/>
		<path  d="M488.4,307.1c0,0.4-0.1,0.6-0.3,0.7c-0.2,0.1-0.4,0.2-0.6,0.2h-9.3c0,0.8,0.1,1.6,0.3,2.3
			c0.2,0.7,0.4,1.3,0.8,1.8s0.9,0.9,1.5,1.1c0.6,0.3,1.4,0.4,2.3,0.4c0.6,0,1.2-0.1,1.7-0.2s0.9-0.2,1.3-0.4
			c0.4-0.1,0.7-0.3,0.9-0.4c0.2-0.1,0.4-0.2,0.5-0.2s0.1,0,0.2,0s0.1,0.1,0.1,0.1c0,0.1,0.1,0.1,0.1,0.2c0,0.1,0,0.2,0,0.4
			c0,0.1,0,0.1,0,0.2c0,0.1,0,0.1,0,0.2c0,0.1,0,0.1-0.1,0.2c0,0.1-0.1,0.1-0.1,0.2c-0.1,0.1-0.2,0.1-0.5,0.3
			c-0.3,0.1-0.6,0.3-1,0.4c-0.4,0.1-0.9,0.2-1.5,0.3s-1.2,0.2-1.8,0.2c-1.1,0-2-0.2-2.8-0.5c-0.8-0.3-1.5-0.8-2.1-1.4
			c-0.6-0.6-1-1.4-1.3-2.3s-0.4-2-0.4-3.2c0-1.2,0.1-2.2,0.4-3.1s0.7-1.7,1.3-2.3c0.6-0.6,1.2-1.1,2-1.5c0.8-0.3,1.7-0.5,2.6-0.5
			c1,0,1.9,0.2,2.6,0.5c0.7,0.3,1.3,0.8,1.8,1.4c0.5,0.6,0.8,1.3,1,2c0.2,0.8,0.3,1.6,0.3,2.4v0.5H488.4z M486.6,306.6
			c0-1.5-0.3-2.6-1-3.4c-0.7-0.8-1.7-1.2-3-1.2c-0.7,0-1.3,0.1-1.8,0.4c-0.5,0.3-1,0.6-1.3,1c-0.4,0.4-0.6,0.9-0.8,1.5
			c-0.2,0.6-0.3,1.1-0.3,1.7H486.6z"/>
		<path d="M500.6,311c0,0.7-0.1,1.2-0.4,1.8c-0.2,0.5-0.6,1-1,1.3c-0.4,0.4-1,0.6-1.6,0.8c-0.6,0.2-1.3,0.3-2.1,0.3
			c-0.5,0-0.9,0-1.3-0.1s-0.8-0.2-1.2-0.3c-0.3-0.1-0.6-0.2-0.9-0.4c-0.2-0.1-0.4-0.2-0.5-0.3s-0.2-0.2-0.2-0.4s-0.1-0.4-0.1-0.6
			c0-0.1,0-0.2,0-0.3c0-0.1,0-0.2,0.1-0.3c0-0.1,0.1-0.1,0.1-0.2c0.1,0,0.1-0.1,0.2-0.1s0.3,0.1,0.5,0.2s0.5,0.3,0.8,0.5
			s0.7,0.3,1.1,0.5c0.4,0.1,0.9,0.2,1.5,0.2c0.5,0,0.9-0.1,1.3-0.2s0.7-0.3,1-0.5s0.5-0.5,0.7-0.8c0.2-0.3,0.2-0.7,0.2-1.1
			c0-0.4-0.1-0.8-0.3-1.1c-0.2-0.3-0.5-0.5-0.8-0.8c-0.3-0.2-0.7-0.4-1.1-0.6c-0.4-0.2-0.8-0.3-1.3-0.5c-0.4-0.2-0.9-0.4-1.3-0.6
			c-0.4-0.2-0.8-0.5-1.1-0.8c-0.3-0.3-0.6-0.7-0.8-1.1c-0.2-0.4-0.3-0.9-0.3-1.5c0-0.5,0.1-0.9,0.3-1.4c0.2-0.5,0.5-0.9,0.8-1.2
			c0.4-0.4,0.9-0.7,1.5-0.9c0.6-0.2,1.3-0.3,2.1-0.3c0.3,0,0.7,0,1,0.1s0.6,0.1,0.9,0.2s0.5,0.2,0.7,0.3s0.4,0.2,0.5,0.3
			c0.1,0.1,0.2,0.1,0.2,0.2s0.1,0.1,0.1,0.2s0,0.1,0,0.2c0,0.1,0,0.2,0,0.3s0,0.2,0,0.3s0,0.2-0.1,0.3c0,0.1-0.1,0.1-0.1,0.2
			c0,0-0.1,0.1-0.2,0.1s-0.2-0.1-0.4-0.2c-0.2-0.1-0.4-0.2-0.6-0.4c-0.3-0.1-0.6-0.3-0.9-0.4c-0.4-0.1-0.8-0.2-1.3-0.2
			s-0.9,0.1-1.2,0.2c-0.4,0.1-0.7,0.3-0.9,0.5c-0.2,0.2-0.4,0.4-0.5,0.7c-0.1,0.3-0.2,0.6-0.2,0.9c0,0.4,0.1,0.8,0.3,1.1
			c0.2,0.3,0.5,0.6,0.8,0.8s0.7,0.4,1.1,0.6c0.4,0.2,0.9,0.3,1.3,0.5c0.4,0.2,0.9,0.4,1.3,0.6c0.4,0.2,0.8,0.5,1.1,0.7
			c0.3,0.3,0.6,0.6,0.8,1.1C500.5,310,500.6,310.5,500.6,311z"/>
		<path  d="M522.7,307.1c0,0.4-0.1,0.6-0.3,0.7c-0.2,0.1-0.4,0.2-0.6,0.2h-9.3c0,0.8,0.1,1.6,0.3,2.3s0.4,1.3,0.8,1.8
			c0.4,0.5,0.9,0.9,1.5,1.1c0.6,0.3,1.4,0.4,2.3,0.4c0.6,0,1.2-0.1,1.7-0.2s0.9-0.2,1.3-0.4c0.4-0.1,0.7-0.3,0.9-0.4
			s0.4-0.2,0.5-0.2s0.1,0,0.2,0s0.1,0.1,0.1,0.1c0,0.1,0.1,0.1,0.1,0.2c0,0.1,0,0.2,0,0.4c0,0.1,0,0.1,0,0.2c0,0.1,0,0.1,0,0.2
			c0,0.1,0,0.1-0.1,0.2c0,0.1-0.1,0.1-0.1,0.2c-0.1,0.1-0.2,0.1-0.5,0.3c-0.3,0.1-0.6,0.3-1,0.4c-0.4,0.1-0.9,0.2-1.5,0.3
			s-1.2,0.2-1.8,0.2c-1.1,0-2-0.2-2.8-0.5c-0.8-0.3-1.5-0.8-2.1-1.4c-0.6-0.6-1-1.4-1.3-2.3s-0.4-2-0.4-3.2c0-1.2,0.1-2.2,0.4-3.1
			s0.7-1.7,1.3-2.3c0.6-0.6,1.2-1.1,2-1.5c0.8-0.3,1.7-0.5,2.6-0.5c1,0,1.9,0.2,2.6,0.5c0.7,0.3,1.3,0.8,1.8,1.4
			c0.5,0.6,0.8,1.3,1,2c0.2,0.8,0.3,1.6,0.3,2.4L522.7,307.1L522.7,307.1z M520.9,306.6c0-1.5-0.3-2.6-1-3.4c-0.7-0.8-1.7-1.2-3-1.2
			c-0.7,0-1.3,0.1-1.8,0.4c-0.5,0.3-1,0.6-1.3,1c-0.4,0.4-0.6,0.9-0.8,1.5s-0.3,1.1-0.3,1.7H520.9z"/>
		<path  d="M546.4,314.7c0,0.1,0,0.1,0,0.2s-0.1,0.1-0.1,0.1c-0.1,0-0.2,0.1-0.3,0.1s-0.3,0-0.4,0c-0.2,0-0.3,0-0.4,0
			c-0.1,0-0.2,0-0.3-0.1s-0.1-0.1-0.1-0.1c0-0.1,0-0.1,0-0.2v-8.4c0-0.6-0.1-1.2-0.2-1.8c-0.1-0.5-0.3-1-0.5-1.4
			c-0.2-0.4-0.6-0.7-0.9-0.9c-0.4-0.2-0.8-0.3-1.3-0.3c-0.6,0-1.3,0.2-1.9,0.7c-0.7,0.5-1.4,1.2-2.1,2.2v9.8c0,0.1,0,0.1,0,0.2
			c0,0.1-0.1,0.1-0.1,0.1c-0.1,0-0.2,0.1-0.3,0.1s-0.3,0-0.4,0s-0.3,0-0.4,0c-0.1,0-0.2,0-0.3-0.1c-0.1,0-0.1-0.1-0.1-0.1
			c0-0.1,0-0.1,0-0.2v-8.4c0-0.6-0.1-1.2-0.2-1.8c-0.1-0.5-0.3-1-0.6-1.4c-0.2-0.4-0.6-0.7-0.9-0.9c-0.4-0.2-0.8-0.3-1.3-0.3
			c-0.6,0-1.3,0.2-1.9,0.7c-0.7,0.5-1.4,1.2-2.1,2.2v9.8c0,0.1,0,0.1,0,0.2c0,0.1-0.1,0.1-0.1,0.1s-0.2,0.1-0.3,0.1s-0.3,0-0.4,0
			c-0.2,0-0.3,0-0.4,0c-0.1,0-0.2,0-0.3-0.1c-0.1,0-0.1-0.1-0.1-0.1c0-0.1,0-0.1,0-0.2V301c0-0.1,0-0.1,0-0.2c0-0.1,0.1-0.1,0.1-0.1
			c0.1,0,0.2-0.1,0.3-0.1s0.2,0,0.4,0s0.3,0,0.4,0c0.1,0,0.2,0,0.3,0.1c0.1,0,0.1,0.1,0.1,0.1c0,0.1,0,0.1,0,0.2v1.9
			c0.8-0.9,1.5-1.5,2.2-1.9s1.4-0.6,2.1-0.6c0.6,0,1.1,0.1,1.5,0.2s0.8,0.3,1.2,0.6c0.3,0.2,0.6,0.5,0.9,0.9
			c0.2,0.3,0.4,0.7,0.6,1.1c0.5-0.5,0.9-1,1.3-1.3c0.4-0.4,0.8-0.6,1.2-0.9c0.4-0.2,0.7-0.4,1.1-0.5c0.4-0.1,0.7-0.1,1-0.1
			c0.9,0,1.6,0.2,2.2,0.5c0.6,0.3,1.1,0.7,1.4,1.2c0.4,0.5,0.6,1.1,0.8,1.8c0.2,0.7,0.2,1.4,0.2,2.2v8.6H546.4z"/>
		<path  d="M566.5,311c0,0.7-0.1,1.2-0.4,1.8c-0.2,0.5-0.6,1-1,1.3c-0.4,0.4-1,0.6-1.6,0.8c-0.6,0.2-1.3,0.3-2.1,0.3
			c-0.5,0-0.9,0-1.3-0.1c-0.4-0.1-0.8-0.2-1.2-0.3c-0.3-0.1-0.6-0.2-0.9-0.4c-0.2-0.1-0.4-0.2-0.5-0.3s-0.2-0.2-0.2-0.4
			s-0.1-0.4-0.1-0.6c0-0.1,0-0.2,0-0.3c0-0.1,0-0.2,0.1-0.3c0-0.1,0.1-0.1,0.1-0.2c0.1,0,0.1-0.1,0.2-0.1c0.1,0,0.3,0.1,0.5,0.2
			s0.5,0.3,0.8,0.5s0.7,0.3,1.1,0.5c0.4,0.1,0.9,0.2,1.5,0.2c0.5,0,0.9-0.1,1.3-0.2c0.4-0.1,0.7-0.3,1-0.5s0.5-0.5,0.7-0.8
			c0.2-0.3,0.2-0.7,0.2-1.1c0-0.4-0.1-0.8-0.3-1.1c-0.2-0.3-0.5-0.5-0.8-0.8c-0.3-0.2-0.7-0.4-1.1-0.6c-0.4-0.2-0.8-0.3-1.3-0.5
			c-0.4-0.2-0.9-0.4-1.3-0.6c-0.4-0.2-0.8-0.5-1.1-0.8c-0.3-0.3-0.6-0.7-0.8-1.1s-0.3-0.9-0.3-1.5c0-0.5,0.1-0.9,0.3-1.4
			s0.5-0.9,0.8-1.2c0.4-0.4,0.9-0.7,1.5-0.9c0.6-0.2,1.3-0.3,2.1-0.3c0.3,0,0.7,0,1,0.1s0.6,0.1,0.9,0.2s0.5,0.2,0.7,0.3
			s0.4,0.2,0.5,0.3c0.1,0.1,0.2,0.1,0.2,0.2s0.1,0.1,0.1,0.2s0,0.1,0,0.2c0,0.1,0,0.2,0,0.3s0,0.2,0,0.3s0,0.2-0.1,0.3
			c0,0.1-0.1,0.1-0.1,0.2c0,0-0.1,0.1-0.2,0.1c-0.1,0-0.2-0.1-0.4-0.2c-0.2-0.1-0.4-0.2-0.6-0.4c-0.3-0.1-0.6-0.3-0.9-0.4
			c-0.4-0.1-0.8-0.2-1.3-0.2s-0.9,0.1-1.2,0.2c-0.4,0.1-0.7,0.3-0.9,0.5s-0.4,0.4-0.5,0.7c-0.1,0.3-0.2,0.6-0.2,0.9
			c0,0.4,0.1,0.8,0.3,1.1c0.2,0.3,0.5,0.6,0.8,0.8s0.7,0.4,1.1,0.6c0.4,0.2,0.9,0.3,1.3,0.5c0.4,0.2,0.9,0.4,1.3,0.6
			c0.4,0.2,0.8,0.5,1.1,0.7c0.3,0.3,0.6,0.6,0.8,1.1C566.4,310,566.5,310.5,566.5,311z"/>
		<path d="M580,314.7c0,0.1,0,0.2-0.1,0.2c-0.1,0.1-0.2,0.1-0.3,0.1s-0.2,0-0.4,0s-0.3,0-0.4,0c-0.1,0-0.2-0.1-0.3-0.1
			c-0.1-0.1-0.1-0.1-0.1-0.2v-1.5c-0.6,0.7-1.3,1.2-2,1.5c-0.7,0.4-1.5,0.5-2.3,0.5c-0.7,0-1.4-0.1-1.9-0.3
			c-0.6-0.2-1.1-0.5-1.4-0.8c-0.4-0.3-0.7-0.8-0.9-1.3s-0.3-1-0.3-1.7c0-0.8,0.2-1.4,0.5-2c0.3-0.6,0.8-1,1.3-1.4
			c0.6-0.4,1.3-0.7,2.1-0.8c0.8-0.2,1.7-0.3,2.7-0.3h2.2v-1.2c0-0.6-0.1-1.1-0.2-1.6c-0.1-0.4-0.3-0.8-0.6-1.1
			c-0.3-0.3-0.6-0.5-1.1-0.7c-0.4-0.2-1-0.2-1.6-0.2s-1.2,0.1-1.6,0.2c-0.5,0.1-0.9,0.3-1.3,0.5c-0.4,0.2-0.7,0.3-0.9,0.5
			c-0.2,0.1-0.4,0.2-0.5,0.2s-0.1,0-0.2,0c-0.1,0-0.1-0.1-0.1-0.1c0-0.1-0.1-0.1-0.1-0.2s0-0.2,0-0.3c0-0.2,0-0.4,0-0.5
			c0-0.1,0.1-0.3,0.2-0.4c0.1-0.1,0.4-0.3,0.7-0.4c0.3-0.2,0.7-0.3,1.1-0.5c0.4-0.1,0.9-0.3,1.4-0.4s1-0.1,1.5-0.1
			c0.9,0,1.7,0.1,2.4,0.3c0.6,0.2,1.2,0.6,1.6,1c0.4,0.4,0.7,0.9,0.9,1.6c0.2,0.6,0.3,1.3,0.3,2.1v9.4H580z M578.2,308.2h-2.5
			c-0.7,0-1.4,0.1-1.9,0.2s-1,0.3-1.4,0.6s-0.6,0.6-0.8,0.9c-0.2,0.4-0.3,0.8-0.3,1.2c0,0.8,0.3,1.4,0.7,1.9
			c0.5,0.5,1.2,0.7,2.1,0.7c0.7,0,1.4-0.2,2-0.6c0.6-0.4,1.3-0.9,2-1.7v-3.2H578.2z"/>
		<path  d="M596,314.7c0,0.1,0,0.1,0,0.2s-0.1,0.1-0.1,0.1c-0.1,0-0.2,0.1-0.3,0.1s-0.2,0-0.4,0s-0.3,0-0.4,0
			c-0.1,0-0.2,0-0.3-0.1s-0.1-0.1-0.1-0.1c0-0.1,0-0.1,0-0.2v-1.9c-0.8,0.9-1.6,1.5-2.3,1.9c-0.8,0.4-1.5,0.6-2.2,0.6
			c-0.9,0-1.7-0.2-2.3-0.5c-0.6-0.3-1.1-0.7-1.5-1.2s-0.7-1.1-0.8-1.8c-0.2-0.7-0.3-1.5-0.3-2.5V301c0-0.1,0-0.1,0-0.2
			c0-0.1,0.1-0.1,0.1-0.1c0.1,0,0.2-0.1,0.3-0.1s0.3,0,0.4,0c0.2,0,0.3,0,0.4,0c0.1,0,0.2,0,0.3,0.1c0.1,0,0.1,0.1,0.1,0.1
			c0,0.1,0,0.1,0,0.2v8.1c0,0.8,0.1,1.5,0.2,2.1c0.1,0.5,0.3,1,0.6,1.4s0.6,0.7,1,0.9s0.9,0.3,1.4,0.3c0.7,0,1.4-0.2,2.1-0.7
			c0.7-0.5,1.4-1.2,2.2-2.2V301c0-0.1,0-0.1,0-0.2c0-0.1,0.1-0.1,0.1-0.1c0.1,0,0.2-0.1,0.3-0.1s0.3,0,0.4,0c0.2,0,0.3,0,0.4,0
			c0.1,0,0.2,0,0.3,0.1c0.1,0,0.1,0.1,0.1,0.1c0,0.1,0,0.1,0,0.2v13.7H596z M592,294.3c0.1-0.1,0.1-0.2,0.2-0.3
			c0.1-0.1,0.2-0.1,0.2-0.2c0.1,0,0.2-0.1,0.3-0.1s0.3,0,0.5,0s0.3,0,0.5,0s0.2,0.1,0.3,0.1c0,0.1,0.1,0.1,0.1,0.2s-0.1,0.2-0.1,0.2
			l-2.6,3.5c-0.1,0.1-0.1,0.2-0.2,0.2c-0.1,0.1-0.1,0.1-0.2,0.1c-0.1,0-0.2,0.1-0.3,0.1s-0.2,0-0.4,0s-0.3,0-0.4,0
			c-0.1,0-0.2-0.1-0.2-0.1s0-0.1,0-0.2c0-0.1,0-0.2,0.1-0.2L592,294.3z"/>
		<path  d="M612.2,314.7c0,0.1,0,0.1,0,0.2s-0.1,0.1-0.1,0.1s-0.1,0.1-0.2,0.1c-0.1,0-0.2,0-0.4,0s-0.3,0-0.4,0
			c-0.1,0-0.2,0-0.3-0.1c-0.1,0-0.1-0.1-0.2-0.1c0-0.1-0.1-0.1-0.1-0.2v-2c-0.7,0.8-1.5,1.4-2.3,1.9c-0.8,0.4-1.6,0.7-2.5,0.7
			c-1,0-1.8-0.2-2.5-0.6s-1.3-0.9-1.7-1.6s-0.8-1.4-1-2.3c-0.2-0.9-0.3-1.8-0.3-2.8c0-1.2,0.1-2.2,0.4-3.1c0.3-0.9,0.6-1.7,1.1-2.4
			c0.5-0.7,1.1-1.2,1.8-1.5c0.7-0.4,1.6-0.5,2.5-0.5c0.8,0,1.6,0.2,2.3,0.6c0.7,0.4,1.4,0.9,2,1.6v-8.2c0-0.1,0-0.1,0-0.2
			c0-0.1,0.1-0.1,0.1-0.1s0.2-0.1,0.3-0.1s0.3,0,0.4,0c0.2,0,0.3,0,0.4,0c0.1,0,0.2,0,0.3,0.1c0.1,0,0.1,0.1,0.1,0.1
			c0,0.1,0,0.1,0,0.2v20.2H612.2z M610.4,304.8c-0.8-0.9-1.5-1.6-2.2-2.1s-1.4-0.7-2.2-0.7c-0.7,0-1.3,0.2-1.8,0.5
			c-0.5,0.3-0.9,0.8-1.2,1.3s-0.5,1.2-0.7,1.8c-0.1,0.7-0.2,1.4-0.2,2.1c0,0.8,0.1,1.5,0.2,2.2c0.1,0.7,0.3,1.4,0.6,1.9
			c0.3,0.6,0.7,1,1.2,1.3s1.1,0.5,1.8,0.5c0.4,0,0.7-0.1,1.1-0.2c0.3-0.1,0.7-0.3,1.1-0.5c0.4-0.2,0.7-0.5,1.1-0.9
			c0.4-0.4,0.8-0.8,1.2-1.4L610.4,304.8L610.4,304.8z"/>
		<path  d="M628.4,307.1c0,0.4-0.1,0.6-0.3,0.7c-0.2,0.1-0.4,0.2-0.6,0.2h-9.3c0,0.8,0.1,1.6,0.3,2.3s0.4,1.3,0.8,1.8
			c0.4,0.5,0.9,0.9,1.5,1.1c0.6,0.3,1.4,0.4,2.3,0.4c0.6,0,1.2-0.1,1.7-0.2s0.9-0.2,1.3-0.4c0.4-0.1,0.7-0.3,0.9-0.4
			s0.4-0.2,0.5-0.2s0.1,0,0.2,0s0.1,0.1,0.1,0.1c0,0.1,0.1,0.1,0.1,0.2c0,0.1,0,0.2,0,0.4c0,0.1,0,0.1,0,0.2c0,0.1,0,0.1,0,0.2
			c0,0.1,0,0.1-0.1,0.2c0,0.1-0.1,0.1-0.1,0.2c-0.1,0.1-0.2,0.1-0.5,0.3c-0.3,0.1-0.6,0.3-1,0.4c-0.4,0.1-0.9,0.2-1.5,0.3
			s-1.2,0.2-1.8,0.2c-1.1,0-2-0.2-2.8-0.5c-0.8-0.3-1.5-0.8-2.1-1.4c-0.6-0.6-1-1.4-1.3-2.3s-0.4-2-0.4-3.2c0-1.2,0.1-2.2,0.4-3.1
			c0.3-0.9,0.7-1.7,1.3-2.3c0.6-0.6,1.2-1.1,2-1.5c0.8-0.3,1.7-0.5,2.6-0.5c1,0,1.9,0.2,2.6,0.5c0.7,0.3,1.3,0.8,1.8,1.4
			c0.5,0.6,0.8,1.3,1,2c0.2,0.8,0.3,1.6,0.3,2.4L628.4,307.1L628.4,307.1z M626.5,306.6c0-1.5-0.3-2.6-1-3.4c-0.7-0.8-1.7-1.2-3-1.2
			c-0.7,0-1.3,0.1-1.8,0.4c-0.5,0.3-1,0.6-1.3,1c-0.4,0.4-0.6,0.9-0.8,1.5s-0.3,1.1-0.3,1.7H626.5z"/>
	</g>
</g>
<g className="colorr">
	<path class="animelogo1" d="M393.4,59c-1.8,3-3.7,6-5.5,9c-24,39.2-48,78.3-72.1,117.5c-0.1,0.2-0.2,0.3-0.4,0.6c-26.2-41.9-52.4-83.8-78.6-125.6
		c0.1-0.1,0.2-0.3,0.3-0.4c13.1-14.6,26.1-29.2,39.2-43.8c1.3-1.5,2.6-2.9,3.9-4.4c0.1-0.1,0.2-0.3,0.3-0.4c22,0,44.1,0,66.1,0
		c0.1,0.1,0.1,0.1,0.2,0.2c15.4,15.7,30.7,31.3,46.1,47c0.1,0.1,0.3,0.2,0.4,0.3C393.4,58.9,393.4,59,393.4,59z M383.8,60.1
		c-0.2-0.2-0.3-0.3-0.4-0.4c-13.2-13.4-26.3-26.9-39.5-40.3c-0.2-0.2-0.6-0.3-0.9-0.3c-19.4,0-38.9,0-58.3,0c-0.4,0-0.7,0.1-1,0.4
		c-12.3,13.8-24.6,27.6-37,41.3c-0.3,0.3-0.3,0.6-0.1,1c22.8,36.5,45.6,72.9,68.4,109.4c0.1,0.1,0.2,0.3,0.3,0.5
		C338.2,134.4,361,97.2,383.8,60.1z"/>
	<path class="animelogo2" d="M315.5,165.3c-1.3-2.1-2.6-4.1-3.8-6.1c-19.7-31.5-39.4-63.1-59.2-94.6c-0.3-0.5-0.2-0.7,0.1-1.1
		C264,50.7,275.4,38,286.8,25.2c0.4-0.4,0.8-0.6,1.4-0.6c17.3,0,34.6,0,52,0c0.4,0,0.8,0.1,1.1,0.4c12.2,12.5,24.5,25,36.7,37.5
		c0.3,0.3,0.3,0.5,0.1,0.8c-20.8,33.8-41.5,67.7-62.3,101.5C315.7,165,315.6,165.1,315.5,165.3z M257.7,64.5
		c19.3,30.8,38.5,61.6,57.8,92.4c19.1-31.2,38.2-62.3,57.3-93.4c-0.1-0.1-0.2-0.2-0.3-0.3c-11-11.3-22.1-22.5-33.1-33.8
		c-0.3-0.3-0.6-0.4-1-0.4c-7.7,0-15.5,0-23.2,0c-8.4,0-16.8,0-25.1,0c-0.4,0-0.7,0.1-1,0.5c-8.9,10-17.8,19.9-26.7,29.9
		C260.7,61,259.2,62.7,257.7,64.5z"/>
	<path class="animelogo3" d="M312.5,144.8c-15.8-27.1-31.7-54.1-47.6-81.3c1,0,1.9,0,2.8,0c9,0,17.9,0,26.9,0.1c4.4,0,8.8,0,13.1,0.1
		c0.4,0,0.6-0.1,0.6-0.6c0-8.7,0-17.3,0-26c0-0.1,0-0.3,0-0.4c-5.5,0-11,0-16.6,0c0-1.5,0-2.9,0-4.4c7,0,14,0,21,0
		c0,37.5,0,75,0,112.5C312.6,144.7,312.6,144.8,312.5,144.8z M308.1,128.4c0,0,0.1,0,0.1,0c0-20.1,0-40.2,0-60.3
		c-11.8,0-23.6,0-35.5,0C284.5,88.2,296.3,108.3,308.1,128.4z"/>
	<path class="animelogo4" d="M338.3,36.6c-5.5,0-11,0-16.6,0c0,8.9,0,17.9,0,26.9c14.3,0,28.6,0,42.9,0c0,0.1,0.1,0.1,0.1,0.2c-15.8,27-31.5,54-47.3,81
		c0,0-0.1,0-0.1,0c0-37.5,0-75,0-112.5c7,0,14,0,21,0C338.3,33.7,338.3,35.1,338.3,36.6z M357,68c-11.9,0-23.6,0-35.3,0
		c0,20.1,0,40.2,0,60.3c0,0,0.1,0,0.1,0C333.5,108.3,345.2,88.2,357,68z"/>
</g>
</svg>
