<?xml version="1.0" encoding="utf-8"?>
<?xml-stylesheet type="text/css" href="../../index.css"?>
<!-- Generator: Adobe Illustrator 21.1.0, SVG Export Plug-In . SVG Version: 6.00 Build 0)  -->
<svg version="1.1" id="Layer_1" xmlns="http://www.w3.org/2000/svg" x="0px" y="0px"
	 viewBox="0 0 298.1 333" style="enable-background:new 0 0 298.1 333;">

<g class="colorr">
	<path className="animelogo11" d="M298.1,90.9c-3.5,5.7-7,11.4-10.6,17.1c-45.7,74.6-91.5,149.2-137.2,223.7c-0.2,0.3-0.4,0.6-0.7,1.1
		C99.7,253,49.9,173.3,0,93.6c0.2-0.3,0.4-0.5,0.7-0.8C25.5,65,50.4,37.2,75.3,9.3c2.5-2.8,5-5.6,7.4-8.3c0.2-0.3,0.4-0.6,0.6-0.8
		c42,0,84,0,126,0c0.1,0.1,0.2,0.3,0.3,0.4c29.3,29.8,58.5,59.7,87.8,89.5c0.2,0.2,0.5,0.4,0.7,0.6
		C298.1,90.7,298.1,90.8,298.1,90.9z M279.8,92.9c-0.3-0.3-0.5-0.6-0.8-0.8c-25.1-25.6-50.2-51.2-75.3-76.7
		c-0.4-0.4-1.1-0.6-1.6-0.6c-37,0-74,0-111.1-0.1c-0.8,0-1.4,0.2-1.9,0.8C65.7,41.7,42.3,68,18.8,94.2c-0.6,0.7-0.7,1.1-0.2,1.9
		c43.4,69.4,86.9,138.9,130.3,208.3c0.2,0.3,0.4,0.6,0.6,1C193,234.4,236.4,163.7,279.8,92.9z"/>
	<path className="animelogo12" d="M149.6,293.3c-2.5-4-4.9-7.8-7.3-11.6c-37.6-60.1-75.1-120.1-112.7-180.2c-0.5-0.9-0.4-1.3,0.2-2
		c21.8-24.3,43.5-48.6,65.2-73c0.7-0.8,1.5-1.2,2.6-1.2c33,0,66,0.1,98.9,0c0.8,0,1.4,0.2,2,0.8C222,50,245.3,73.8,268.6,97.5
		c0.6,0.6,0.6,0.9,0.2,1.6c-39.5,64.4-79.1,128.9-118.6,193.3C150,292.7,149.9,292.9,149.6,293.3z M39.5,101.3
		c36.7,58.7,73.3,117.2,110,176c36.4-59.4,72.7-118.6,109-177.8c-0.2-0.2-0.4-0.4-0.5-0.6c-21-21.4-42-42.9-63-64.3
		c-0.5-0.5-1.1-0.8-1.8-0.8c-14.7,0-29.5,0-44.2,0c-16,0-31.9,0-47.9-0.1c-0.8,0-1.4,0.2-2,0.9c-17,19-33.9,38-50.9,56.9
		C45.4,94.8,42.5,98,39.5,101.3z"/>
	<path className="animelogo13" d="M144,254.2c-30.2-51.5-60.3-103.1-90.6-154.8c1.9,0,3.6,0,5.3,0c17.1,0,34.1,0.1,51.2,0.1c8.3,0,16.7,0.1,25,0.1
		c0.8,0,1.1-0.2,1.1-1.1c0-16.5,0-33,0-49.5c0-0.2,0-0.5,0-0.8c-10.5,0-21,0-31.6,0c0-2.8,0-5.6,0-8.4c13.3,0,26.6,0,39.9,0
		c0,71.4,0,142.8,0,214.2C144.2,254.1,144.1,254.2,144,254.2z M135.6,223.1c0.1,0,0.2,0,0.2-0.1c0-38.3,0-76.5,0-114.9
		c-22.5,0-45,0-67.6,0C90.7,146.4,113.2,184.7,135.6,223.1z"/>
	<path className="animelogo14" d="M193,48.3c-10.6,0-21,0-31.6,0c0,17,0,34,0,51.2c27.2,0,54.5,0,81.7,0c0.1,0.1,0.1,0.2,0.2,0.4
		c-30,51.4-60.1,102.9-90.1,154.3c-0.1,0-0.1,0-0.2-0.1c0-71.4,0-142.8,0-214.2c13.3,0,26.6,0,40,0C193,42.6,193,45.4,193,48.3z
		 M228.8,108.1c-22.6,0-44.9,0-67.3,0c0,38.3,0,76.6,0,114.9c0.1,0,0.1,0,0.2,0.1C184,184.8,206.3,146.5,228.8,108.1z"/>
</g>
</svg>
